<svg xmlns="http://www.w3.org/2000/svg" xmlns:xlink="http://www.w3.org/1999/xlink" width="500" zoomAndPan="magnify" viewBox="0 0 375 374.999991" height="500" preserveAspectRatio="xMidYMid meet" version="1.0"><defs><clipPath id="4b56900231"><path d="M 77 1.09375 L 191 1.09375 L 191 57 L 77 57 Z M 77 1.09375 " clip-rule="nonzero"/></clipPath><clipPath id="7d474058a3"><path d="M 339.382812 110.699219 L 374.894531 110.699219 L 374.894531 194 L 339.382812 194 Z M 339.382812 110.699219 " clip-rule="nonzero"/></clipPath><clipPath id="a441870cbd"><path d="M 334.164062 189 L 374.894531 189 L 374.894531 265 L 334.164062 265 Z M 334.164062 189 " clip-rule="nonzero"/></clipPath><clipPath id="91a2c2f6f2"><path d="M 156 344 L 249 344 L 249 373.84375 L 156 373.84375 Z M 156 344 " clip-rule="nonzero"/></clipPath><clipPath id="ab78c85f8f"><path d="M 135 1.09375 L 252 1.09375 L 252 20 L 135 20 Z M 135 1.09375 " clip-rule="nonzero"/></clipPath><clipPath id="8726e536aa"><path d="M 45 1.09375 L 140 1.09375 L 140 58 L 45 58 Z M 45 1.09375 " clip-rule="nonzero"/></clipPath><clipPath id="45ac181495"><path d="M 349.074219 112.191406 L 374.894531 112.191406 L 374.894531 194.953125 L 349.074219 194.953125 Z M 349.074219 112.191406 " clip-rule="nonzero"/></clipPath><clipPath id="be47da7b3b"><path d="M 355.039062 188 L 374.894531 188 L 374.894531 267.277344 L 355.039062 267.277344 Z M 355.039062 188 " clip-rule="nonzero"/></clipPath><clipPath id="61cee5eb6c"><path d="M 200 338 L 291 338 L 291 373.84375 L 200 373.84375 Z M 200 338 " clip-rule="nonzero"/></clipPath><clipPath id="7211d43f5c"><path d="M 132 355 L 204 355 L 204 373.84375 L 132 373.84375 Z M 132 355 " clip-rule="nonzero"/></clipPath></defs><g clip-path="url(#4b56900231)"><path fill="#ff914d" d="M 138.035156 2.738281 L 80.890625 53.898438 L 187.5625 14.167969 Z M 77.007812 56.242188 L 137.800781 1.820312 L 190.488281 13.980469 L 189.171875 14.46875 L 77.007812 56.242188 " fill-opacity="1" fill-rule="nonzero"/></g><path fill="#ff914d" d="M 190.660156 14.265625 L 265.144531 43.625 L 247.742188 6.109375 Z M 266.792969 45.179688 L 187.390625 13.878906 L 248.246094 5.1875 L 266.792969 45.179688 " fill-opacity="1" fill-rule="nonzero"/><path fill="#ff914d" d="M 267.046875 44.808594 L 338.992188 109.664062 L 311.742188 44.265625 Z M 341.210938 112.800781 L 264.882812 43.992188 L 312.296875 43.414062 L 312.410156 43.679688 L 341.210938 112.800781 " fill-opacity="1" fill-rule="nonzero"/><g clip-path="url(#7d474058a3)"><path fill="#ff914d" d="M 340.667969 111.71875 L 348.371094 140.890625 L 372.914062 188.355469 L 359.960938 113.863281 Z M 374.683594 193.613281 L 347.589844 141.191406 L 339.535156 110.746094 L 360.683594 113.097656 L 374.683594 193.613281 " fill-opacity="1" fill-rule="nonzero"/></g><g clip-path="url(#a441870cbd)"><path fill="#ff914d" d="M 335.605469 240.375 L 357.828125 263.136719 L 373.003906 192.683594 Z M 358.320312 264.851562 L 334.484375 240.433594 L 334.714844 240.144531 L 374.59375 189.285156 L 358.320312 264.851562 " fill-opacity="1" fill-rule="nonzero"/></g><path fill="#ff914d" d="M 335.175781 241.140625 L 289.984375 341.324219 L 357.5 264.007812 Z M 286.878906 346.164062 L 334.917969 239.667969 L 358.644531 263.980469 L 358.390625 264.269531 L 286.878906 346.164062 " fill-opacity="1" fill-rule="nonzero"/><path fill="#ff914d" d="M 333.421875 242.984375 L 247.800781 344.421875 L 288.15625 343.328125 Z M 245.945312 345.3125 L 246.550781 344.59375 L 336.671875 237.828125 L 288.707031 344.160156 L 288.445312 344.164062 L 245.945312 345.3125 " fill-opacity="1" fill-rule="nonzero"/><g clip-path="url(#91a2c2f6f2)"><path fill="#ff914d" d="M 159.707031 351.355469 L 201.921875 372.464844 L 245.21875 345.402344 Z M 201.964844 373.429688 L 156.570312 350.734375 L 158.105469 350.625 L 248.527344 344.328125 L 201.964844 373.429688 " fill-opacity="1" fill-rule="nonzero"/></g><path fill="#ff914d" d="M 112.613281 333.398438 L 134.664062 366.742188 L 157.246094 351.144531 Z M 134.433594 367.921875 L 110.429688 331.621094 L 111.675781 332.117188 L 159.023438 350.945312 L 134.433594 367.921875 " fill-opacity="1" fill-rule="nonzero"/><path fill="#ff914d" d="M 58.117188 304.359375 L 78.59375 341.003906 L 110.390625 332.378906 Z M 78.179688 341.988281 L 55.976562 302.253906 L 112.65625 332.640625 L 78.179688 341.988281 " fill-opacity="1" fill-rule="nonzero"/><path fill="#ff914d" d="M 26.058594 284.003906 L 56.214844 302.308594 L 33.601562 243.082031 Z M 57.875 304.304688 L 25.128906 284.417969 L 25.179688 284.132812 L 33.316406 239.976562 L 57.875 304.304688 " fill-opacity="1" fill-rule="nonzero"/><path fill="#ff914d" d="M 1.398438 207.761719 L 32.882812 240.328125 L 23.652344 165.960938 Z M 34.027344 242.726562 L 0.367188 207.902344 L 24.164062 163.214844 L 34.027344 242.726562 " fill-opacity="1" fill-rule="nonzero"/><path fill="#ff914d" d="M 6.992188 124.789062 L 23.714844 163.089844 L 34.503906 93.5 Z M 24.101562 166.085938 L 6.007812 124.636719 L 6.179688 124.433594 L 35.777344 90.773438 L 24.101562 166.085938 " fill-opacity="1" fill-rule="nonzero"/><path fill="#ff914d" d="M 48.359375 56.605469 L 36.070312 90.800781 L 77.746094 55.535156 Z M 34.214844 93.472656 L 47.757812 55.78125 L 80.148438 54.605469 L 34.214844 93.472656 " fill-opacity="1" fill-rule="nonzero"/><path fill="#ff914d" d="M 189.5 14.714844 L 192.222656 47.890625 L 264.011719 44.082031 Z M 191.445312 48.773438 L 188.550781 13.433594 L 267.921875 44.71875 L 191.445312 48.773438 " fill-opacity="1" fill-rule="nonzero"/><path fill="#ff914d" d="M 79.929688 55.433594 L 115.523438 89.933594 L 189.996094 48.863281 Z M 115.382812 90.972656 L 115.160156 90.757812 L 77.96875 54.707031 L 193.667969 47.800781 L 115.382812 90.972656 " fill-opacity="1" fill-rule="nonzero"/><path fill="#ff914d" d="M 35.503906 92.550781 L 24.492188 163.570312 L 114.230469 90.898438 Z M 23.324219 165.601562 L 34.78125 91.722656 L 116.671875 90.003906 L 23.324219 165.601562 " fill-opacity="1" fill-rule="nonzero"/><path fill="#ff914d" d="M 24.398438 165.117188 L 33.691406 239.984375 L 63.75 173.316406 Z M 33.226562 243.074219 L 23.417969 164.054688 L 64.945312 172.707031 L 33.226562 243.074219 " fill-opacity="1" fill-rule="nonzero"/><path fill="#ff914d" d="M 115.425781 91.292969 L 65.664062 171.683594 L 135.113281 127.9375 Z M 63.027344 174.339844 L 115.480469 89.613281 L 136.226562 128.230469 L 63.027344 174.339844 " fill-opacity="1" fill-rule="nonzero"/><path fill="#ff914d" d="M 136.453125 127.703125 L 226.011719 132.675781 L 191.734375 49.199219 Z M 227.296875 133.59375 L 134.890625 128.460938 L 135.328125 127.839844 L 191.929688 47.460938 L 192.226562 48.171875 L 227.296875 133.59375 " fill-opacity="1" fill-rule="nonzero"/><path fill="#ff914d" d="M 193.359375 48.671875 L 260.570312 84.738281 L 265.488281 44.847656 Z M 261.253906 86.058594 L 190.308594 47.988281 L 266.445312 43.953125 L 261.253906 86.058594 " fill-opacity="1" fill-rule="nonzero"/><path fill="#ff914d" d="M 261.074219 85.894531 L 227.617188 132.519531 L 338.425781 111.128906 Z M 225.695312 133.75 L 260.75 84.902344 L 341.777344 111.335938 L 225.695312 133.75 " fill-opacity="1" fill-rule="nonzero"/><path fill="#ff914d" d="M 295.683594 195.972656 L 334.667969 239.351562 L 339.609375 113.066406 Z M 335.425781 241.460938 L 334.734375 240.683594 L 294.664062 196.101562 L 294.800781 195.839844 L 340.59375 109.402344 L 335.425781 241.460938 " fill-opacity="1" fill-rule="nonzero"/><path fill="#ff914d" d="M 227.144531 134.15625 L 233.765625 234.058594 L 294.480469 195.972656 Z M 233.019531 235.519531 L 226.164062 132.117188 L 295.863281 196.101562 L 233.019531 235.519531 " fill-opacity="1" fill-rule="nonzero"/><path fill="#ff914d" d="M 136.230469 128.535156 L 159.453125 213.675781 L 225.796875 133.511719 Z M 159.066406 215.46875 L 135.113281 127.628906 L 135.695312 127.660156 L 227.511719 132.761719 L 159.066406 215.46875 " fill-opacity="1" fill-rule="nonzero"/><path fill="#ff914d" d="M 65.015625 173.765625 L 88.191406 249.914062 L 158.269531 214.597656 Z M 87.679688 251.113281 L 63.675781 172.257812 L 64.515625 172.625 L 160.25 214.542969 L 87.679688 251.113281 " fill-opacity="1" fill-rule="nonzero"/><path fill="#ff914d" d="M 160.027344 215.21875 L 194.714844 288.992188 L 232.703125 235.035156 Z M 194.570312 290.664062 L 194.261719 290.003906 L 158.492188 213.925781 L 234.085938 234.542969 L 194.570312 290.664062 " fill-opacity="1" fill-rule="nonzero"/><path fill="#ff914d" d="M 233.84375 235.003906 L 247.058594 342.925781 L 294.414062 197.011719 Z M 246.6875 346.808594 L 232.941406 234.574219 L 233.167969 234.429688 L 295.929688 195.066406 L 246.6875 346.808594 " fill-opacity="1" fill-rule="nonzero"/><path fill="#ff914d" d="M 195.183594 289.789062 L 246.300781 343.652344 L 233.109375 235.925781 Z M 247.445312 346.082031 L 194.101562 289.867188 L 233.679688 233.652344 L 247.445312 346.082031 " fill-opacity="1" fill-rule="nonzero"/><path fill="#ff914d" d="M 89.046875 251.375 L 158.109375 350.269531 L 194.023438 290.046875 Z M 158.164062 351.820312 L 157.789062 351.285156 L 86.820312 249.65625 L 195.265625 289.609375 L 195.003906 290.042969 L 158.164062 351.820312 " fill-opacity="1" fill-rule="nonzero"/><path fill="#ff914d" d="M 34.113281 242.066406 L 57.125 302.335938 L 87.261719 250.832031 Z M 56.964844 304.277344 L 32.800781 240.992188 L 88.605469 250.195312 L 56.964844 304.277344 " fill-opacity="1" fill-rule="nonzero"/><g clip-path="url(#ab78c85f8f)"><path fill="#004aad" d="M 140.644531 2.78125 L 186.246094 18.691406 L 244.570312 5.964844 Z M 186.191406 19.566406 L 135.195312 1.773438 L 251.421875 5.332031 L 186.191406 19.566406 " fill-opacity="1" fill-rule="nonzero"/></g><path fill="#004aad" d="M 258.390625 22.160156 L 307.316406 41.523438 L 249.21875 6.871094 Z M 311.863281 44.230469 L 257.816406 22.835938 L 246.773438 4.429688 L 312.238281 43.476562 L 311.863281 44.230469 " fill-opacity="1" fill-rule="nonzero"/><g clip-path="url(#8726e536aa)"><path fill="#004aad" d="M 136.761719 3.464844 L 51.015625 54.914062 L 118.542969 35.621094 Z M 45.101562 57.476562 L 139.074219 1.09375 L 119.105469 36.335938 L 118.9375 36.378906 L 45.101562 57.476562 " fill-opacity="1" fill-rule="nonzero"/></g><path fill="#004aad" d="M 313.554688 77.320312 L 358.453125 111.527344 L 312.488281 45.253906 Z M 362.183594 115.429688 L 312.730469 77.75 L 311.550781 42.421875 L 362.183594 115.429688 " fill-opacity="1" fill-rule="nonzero"/><path fill="#004aad" d="M 47.640625 57.703125 L 8.394531 122.394531 L 47.640625 86.335938 Z M 4.601562 127.027344 L 48.480469 54.6875 L 48.480469 86.707031 L 48.34375 86.832031 L 4.601562 127.027344 " fill-opacity="1" fill-rule="nonzero"/><g clip-path="url(#45ac181495)"><path fill="#004aad" d="M 350.675781 132.597656 L 372.703125 187.148438 L 360.117188 114.765625 Z M 374.894531 194.816406 L 349.746094 132.550781 L 349.839844 132.378906 L 360.523438 112.195312 L 374.894531 194.816406 " fill-opacity="1" fill-rule="nonzero"/></g><path fill="#004aad" d="M 6.8125 126.285156 L 1.625 203.136719 L 16.164062 144.980469 Z M 1.292969 207.933594 L 0.464844 207.804688 L 6.183594 123.140625 L 17.054688 144.882812 L 17.019531 145.03125 L 1.292969 207.933594 " fill-opacity="1" fill-rule="nonzero"/><g clip-path="url(#be47da7b3b)"><path fill="#004aad" d="M 356.253906 224.773438 L 358.316406 260.867188 L 372.753906 193.839844 Z M 357.832031 267.121094 L 355.398438 224.585938 L 355.453125 224.480469 L 374.84375 188.128906 L 357.832031 267.121094 " fill-opacity="1" fill-rule="nonzero"/></g><path fill="#004aad" d="M 1.640625 208.800781 L 25.265625 281.820312 L 27.410156 224.90625 Z M 25.925781 286.605469 L 0.125 206.863281 L 28.269531 224.453125 L 28.261719 224.695312 L 25.925781 286.605469 " fill-opacity="1" fill-rule="nonzero"/><path fill="#004aad" d="M 325.785156 272.222656 L 290.394531 340.855469 L 356.882812 264.714844 Z M 286.46875 346.632812 L 325.210938 271.492188 L 325.398438 271.445312 L 359.261719 263.273438 L 286.46875 346.632812 " fill-opacity="1" fill-rule="nonzero"/><path fill="#004aad" d="M 27.226562 285.359375 L 77.222656 339.613281 L 62.332031 300.253906 Z M 79.550781 343.378906 L 23.960938 283.058594 L 62.992188 299.625 L 79.550781 343.378906 " fill-opacity="1" fill-rule="nonzero"/><g clip-path="url(#61cee5eb6c)"><path fill="#004aad" d="M 234.679688 339.683594 L 203.449219 371.996094 L 286.375 343.996094 Z M 200.433594 373.902344 L 234.351562 338.816406 L 234.554688 338.828125 L 290.492188 343.496094 L 200.433594 373.902344 " fill-opacity="1" fill-rule="nonzero"/></g><path fill="#004aad" d="M 80.59375 342.046875 L 133.191406 366.242188 L 116.359375 344.152344 Z M 135.90625 368.417969 L 76.179688 340.945312 L 116.796875 343.335938 L 135.90625 368.417969 " fill-opacity="1" fill-rule="nonzero"/><g clip-path="url(#7211d43f5c)"><path fill="#004aad" d="M 136.832031 367.097656 L 200.101562 372.375 L 172.683594 356.550781 Z M 203.785156 373.523438 L 132.265625 367.5625 L 172.792969 355.644531 L 172.949219 355.734375 L 203.785156 373.523438 " fill-opacity="1" fill-rule="nonzero"/></g><path fill="#004aad" d="M 187.988281 19.632812 L 244.433594 51.109375 L 257.460938 22.886719 Z M 244.816406 52.289062 L 244.421875 52.070312 L 184.449219 18.625 L 258.75 22.109375 L 244.816406 52.289062 " fill-opacity="1" fill-rule="nonzero"/><path fill="#004aad" d="M 121.433594 35.757812 L 175.851562 40.027344 L 185.457031 19.75 Z M 176.367188 40.910156 L 176.074219 40.886719 L 116.214844 36.191406 L 186.980469 18.503906 L 176.367188 40.910156 " fill-opacity="1" fill-rule="nonzero"/><path fill="#004aad" d="M 118.417969 36.785156 L 49.597656 85.941406 L 119.234375 78.84375 Z M 46.523438 87.101562 L 119.230469 35.167969 L 120.09375 79.597656 L 46.523438 87.101562 " fill-opacity="1" fill-rule="nonzero"/><path fill="#004aad" d="M 48.144531 87.25 L 17.816406 143.578125 L 67.644531 108.914062 Z M 15.402344 146.28125 L 47.972656 85.792969 L 68.910156 109.058594 L 68.519531 109.332031 L 15.402344 146.28125 " fill-opacity="1" fill-rule="nonzero"/><path fill="#004aad" d="M 120.449219 79.191406 L 175.6875 111.621094 L 175.6875 41.269531 Z M 176.527344 113.089844 L 118.878906 79.246094 L 176.527344 39.667969 L 176.527344 113.089844 " fill-opacity="1" fill-rule="nonzero"/><path fill="#004aad" d="M 176.527344 40.964844 L 176.527344 111.421875 L 243.683594 51.972656 Z M 175.6875 113.292969 L 175.6875 39.972656 L 176.175781 40.054688 L 245.570312 51.429688 L 175.6875 113.292969 " fill-opacity="1" fill-rule="nonzero"/><path fill="#004aad" d="M 245.199219 51.464844 L 311.464844 76.453125 L 258.234375 23.222656 Z M 314.824219 78.617188 L 244.054688 51.933594 L 257.976562 21.773438 L 314.824219 78.617188 " fill-opacity="1" fill-rule="nonzero"/><path fill="#004aad" d="M 176.898438 112.21875 L 270.953125 149.839844 L 244.398438 52.464844 Z M 272.210938 151.25 L 175.316406 112.492188 L 244.855469 50.9375 L 245.03125 51.59375 L 272.210938 151.25 " fill-opacity="1" fill-rule="nonzero"/><path fill="#004aad" d="M 176.609375 113.007812 L 186.5625 200.675781 L 270.636719 150.617188 Z M 185.871094 202.070312 L 175.613281 111.703125 L 176.265625 111.964844 L 272.53125 150.472656 L 271.800781 150.90625 L 185.871094 202.070312 " fill-opacity="1" fill-rule="nonzero"/><path fill="#004aad" d="M 69.765625 108.609375 L 174.472656 111.882812 L 119.664062 79.707031 Z M 177.746094 112.828125 L 66.789062 109.359375 L 119.667969 78.734375 L 119.878906 78.855469 L 177.746094 112.828125 " fill-opacity="1" fill-rule="nonzero"/><path fill="#004aad" d="M 71.671875 198.453125 L 185.746094 200.941406 L 175.777344 113.171875 Z M 186.691406 201.804688 L 69.375 199.242188 L 70.257812 198.523438 L 176.441406 111.542969 L 186.691406 201.804688 " fill-opacity="1" fill-rule="nonzero"/><path fill="#004aad" d="M 17.261719 144.988281 L 70.078125 197.800781 L 67.875 109.777344 Z M 70.972656 199.890625 L 70.226562 199.140625 L 15.957031 144.871094 L 16.371094 144.585938 L 68.679688 108.195312 L 70.972656 199.890625 " fill-opacity="1" fill-rule="nonzero"/><path fill="#004aad" d="M 17.203125 146.121094 L 28.167969 223.988281 L 69.847656 198.765625 Z M 27.511719 225.371094 L 16.015625 143.742188 L 71.203125 198.929688 L 27.511719 225.371094 " fill-opacity="1" fill-rule="nonzero"/><path fill="#004aad" d="M 28.382812 224.847656 L 62.363281 298.296875 L 70.042969 199.632812 Z M 62.957031 301.582031 L 27.300781 224.515625 L 71.007812 198.0625 L 62.957031 301.582031 " fill-opacity="1" fill-rule="nonzero"/><path fill="#004aad" d="M 71.535156 199.292969 L 155.71875 286.796875 L 185.628906 201.78125 Z M 156.058594 288.367188 L 69.511719 198.402344 L 70.535156 198.425781 L 186.808594 200.964844 L 186.613281 201.511719 L 156.058594 288.367188 " fill-opacity="1" fill-rule="nonzero"/><path fill="#004aad" d="M 187.101562 201.339844 L 287.882812 250.898438 L 271.269531 151.222656 Z M 288.984375 252.378906 L 288.246094 252.015625 L 185.332031 201.410156 L 271.898438 149.867188 L 272 150.476562 L 288.984375 252.378906 " fill-opacity="1" fill-rule="nonzero"/><path fill="#004aad" d="M 186.457031 201.957031 L 156.554688 286.964844 L 287.246094 251.523438 Z M 155.226562 288.195312 L 155.492188 287.441406 L 185.976562 200.789062 L 186.402344 200.996094 L 289.621094 251.753906 L 288.542969 252.042969 L 155.226562 288.195312 " fill-opacity="1" fill-rule="nonzero"/><path fill="#004aad" d="M 63.683594 300.226562 L 116.488281 343.132812 L 154.992188 288.128906 Z M 116.660156 344.355469 L 116.3125 344.070312 L 61.636719 299.648438 L 62.605469 299.519531 L 156.785156 287.039062 L 116.660156 344.355469 " fill-opacity="1" fill-rule="nonzero"/><path fill="#004aad" d="M 117.285156 343.46875 L 172.167969 355.542969 L 155.703125 288.585938 Z M 173.308594 356.652344 L 172.648438 356.511719 L 115.867188 344.019531 L 116.230469 343.5 L 156.078125 286.578125 L 173.308594 356.652344 " fill-opacity="1" fill-rule="nonzero"/><path fill="#004aad" d="M 286.535156 253.921875 L 174.332031 355.226562 L 234.246094 338.882812 Z M 171.148438 356.96875 L 290.332031 249.355469 L 234.789062 339.613281 L 234.628906 339.65625 L 171.148438 356.96875 " fill-opacity="1" fill-rule="nonzero"/><path fill="#004aad" d="M 288.582031 252.199219 L 236.019531 337.613281 L 324.71875 271.910156 Z M 233.015625 340.886719 L 288.285156 251.078125 L 326.28125 271.800781 L 325.75 272.195312 L 233.015625 340.886719 " fill-opacity="1" fill-rule="nonzero"/><path fill="#004aad" d="M 289.421875 251.695312 L 325.359375 271.296875 L 354.757812 225.558594 Z M 325.640625 272.414062 L 325.296875 272.226562 L 287.445312 251.582031 L 288.273438 251.25 L 356.890625 223.800781 L 325.640625 272.414062 " fill-opacity="1" fill-rule="nonzero"/><path fill="#004aad" d="M 272.0625 150.867188 L 288.640625 250.320312 L 349.417969 133.1875 Z M 288.222656 252.953125 L 271.101562 150.222656 L 351.003906 131.960938 L 288.222656 252.953125 " fill-opacity="1" fill-rule="nonzero"/><path fill="#004aad" d="M 313.171875 78.335938 L 272.421875 149.921875 L 349.519531 132.300781 Z M 270.746094 151.167969 L 313.113281 76.734375 L 313.492188 77.300781 L 350.902344 132.847656 L 350.304688 132.988281 L 270.746094 151.167969 " fill-opacity="1" fill-rule="nonzero"/><path fill="#004aad" d="M 349.882812 134.121094 L 289.328125 250.824219 L 355.386719 224.398438 Z M 287.535156 252.453125 L 350.539062 131.027344 L 356.265625 224.957031 L 355.984375 225.070312 L 287.535156 252.453125 " fill-opacity="1" fill-rule="nonzero"/></svg>